<svg width="360" height="19" viewBox="0 0 360 19" fill="none" xmlns="http://www.w3.org/2000/svg" preserveAspectRatio="none">
<path fill-rule="evenodd" clip-rule="evenodd" d="M0 4.35478L9.9 2.89025C20.1 1.42573 39.9 -1.50331 60 0.937558C80.1 3.37843 99.9 11.1892 120 14.6064C140.1 18.0237 159.9 17.0473 180 14.1183C200.1 11.1892 219.9 6.30747 240 5.33112C260.1 4.35478 279.9 7.28382 300 10.2129C320.1 13.1419 339.9 16.071 350.1 17.5355L360 19H350.1C339.9 19 320.1 19 300 19C279.9 19 260.1 19 240 19C219.9 19 200.1 19 180 19C159.9 19 140.1 19 120 19C99.9 19 80.1 19 60 19C39.9 19 20.1 19 9.9 19H0V4.35478Z" fill="#A7D9DD" fill-opacity="0.2"/>
</svg>

