<svg width="360" height="20" viewBox="0 0 360 20" fill="none" xmlns="http://www.w3.org/2000/svg" preserveAspectRatio="none">
<path fill-rule="evenodd" clip-rule="evenodd" d="M360 15.416L350.1 16.9576C339.9 18.4992 320.1 21.5824 300 19.0131C279.9 16.4438 260.1 8.22188 240 4.62481C219.9 1.02773 200.1 2.05547 180 5.13867C159.9 8.22188 140.1 13.3606 120 14.3883C99.9 15.416 80.1 12.3328 60 9.24961C39.9 6.16641 20.1 3.0832 9.89999 1.5416L0 0H9.89999C20.1 0 39.9 0 60 0C80.1 0 99.9 0 120 0C140.1 0 159.9 0 180 0C200.1 0 219.9 0 240 0C260.1 0 279.9 0 300 0C320.1 0 339.9 0 350.1 0H360V15.416Z" fill="#A7D9DD" fill-opacity="0.2"/>
</svg>
